<svg width="540" height="180" viewBox="0 0 540 180" fill="none" xmlns="http://www.w3.org/2000/svg">
<path d="M120 0H90V30H120V0Z" fill="#B9A37C"/>
<path d="M150 30H120V60H150V30Z" fill="#B9A37C"/>
<path d="M180 60H150V90H180V60Z" fill="#B9A37C"/>
<path d="M180 0H150V30H180V0Z" fill="#735E3A"/>
<path d="M210 30H180V60H210V30Z" fill="#735E3A"/>
<path d="M180 90H150V120H180V90Z" fill="#735E3A"/>
<path d="M210 90H180V120H210V90Z" fill="#735E3A"/>
<path d="M270 90H240V120H270V90Z" fill="#735E3A"/>
<path d="M300 90H270V120H300V90Z" fill="#735E3A"/>
<path d="M330 90H300V120H330V90Z" fill="#735E3A"/>
<path d="M390 90H360V120H390V90Z" fill="#735E3A"/>
<path d="M360 90H330V120H360V90Z" fill="#554934"/>
<path d="M480 60H450V90H480V60Z" fill="#554934"/>
<path d="M300 150H270V180H300V150Z" fill="#554934"/>
<path d="M270 150H240V180H270V150Z" fill="#554934"/>
<path d="M210 150H180V180H210V150Z" fill="#554934"/>
<path d="M180 120H150V150H180V120Z" fill="#554934"/>
<path d="M420 90H390V120H420V90Z" fill="#8A7550"/>
<path d="M150 60H120V90H150V60Z" fill="#735E3A"/>
<path d="M120 30H90V60H120V30Z" fill="#8A7550"/>
<path d="M120 60H90V90H120V60Z" fill="#8A7550"/>
<path d="M120 90H90V120H120V90Z" fill="#735E3A"/>
<path d="M150 120H120V150H150V120Z" fill="#735E3A"/>
<path d="M210 120H180V150H210V120Z" fill="#735E3A"/>
<path d="M240 120H210V150H240V120Z" fill="#735E3A"/>
<path d="M270 120H240V150H270V120Z" fill="#735E3A"/>
<path d="M300 120H270V150H300V120Z" fill="#735E3A"/>
<path d="M330 120H300V150H330V120Z" fill="#735E3A"/>
<path d="M360 120H330V150H360V120Z" fill="#735E3A"/>
<path d="M390 120H360V150H390V120Z" fill="#735E3A"/>
<path d="M450 120H420V150H450V120Z" fill="#554934"/>
<path d="M450 90H420V120H450V90Z" fill="#735E3A"/>
<path d="M480 90H450V120H480V90Z" fill="#735E3A"/>
<path d="M510 60H480V90H510V60Z" fill="#B9A37C"/>
<path d="M450 60H420V90H450V60Z" fill="#735E3A"/>
<path d="M390 60H360V90H390V60Z" fill="#735E3A"/>
<path d="M360 60H330V90H360V60Z" fill="#735E3A"/>
<path d="M330 60H300V90H330V60Z" fill="#735E3A"/>
<path d="M300 60H270V90H300V60Z" fill="#735E3A"/>
<path d="M270 60H240V90H270V60Z" fill="#735E3A"/>
<path d="M480 30H450V60H480V30Z" fill="#B9A37C"/>
<path d="M510 0H480V30H510V0Z" fill="#B9A37C"/>
<path d="M540 0H510V30H540V0Z" fill="#B9A37C"/>
<path d="M420 120H390V150H420V120Z" fill="#735E3A"/>
<path d="M90 30H60V60H90V30Z" fill="#8A7550"/>
<path d="M59.9982 3.9164e-05L30 0.329102L30.3291 30.3273L60.3273 29.9982L59.9982 3.9164e-05Z" fill="#8A7550"/>
<path d="M29.9982 30L0 30.3291L0.329062 60.3273L30.3273 59.9982L29.9982 30Z" fill="#8A7550"/>
<path d="M210 60H180V90H210V60Z" fill="#B9A37C"/>
<path d="M240 90H210V120H240V90Z" fill="#B9A37C"/>
<path d="M300 60H270V90H300V60Z" fill="#8A7550"/>
<path d="M270 90H240V120H270V90Z" fill="#8A7550"/>
<path d="M360 120H330V150H360V120Z" fill="#8A7550"/>
<path d="M450 90H420V120H450V90Z" fill="#8A7550"/>
<path d="M210 120H180V150H210V120Z" fill="#B9A37C"/>
<path d="M210 90H180V120H210V90Z" fill="#8A7550"/>
<path d="M270 120H240V150H270V120Z" fill="#B9A37C"/>
<path d="M300 120H270V150H300V120Z" fill="#B9A37C"/>
<path d="M330 150H300V180H330V150Z" fill="#B9A37C"/>
<path d="M180 150H150V180H180V150Z" fill="#B9A37C"/>
<path d="M360 150H330V180H360V150Z" fill="#B9A37C"/>
<path d="M390 150H360V180H390V150Z" fill="#B9A37C"/>
<path d="M420 120H390V150H420V120Z" fill="#B9A37C"/>
<path d="M360 30H330V60H360V30Z" fill="#B9A37C"/>
<path d="M330 60H300V90H330V60Z" fill="#B9A37C"/>
<path d="M390 0H360V30H390V0Z" fill="#B9A37C"/>
<path d="M420 30H390V60H420V30Z" fill="#B9A37C"/>
<path d="M450 150H420V180H450V150Z" fill="#B9A37C"/>
<path d="M150 90H120V120H150V90Z" fill="#B9A37C"/>
</svg>
